<svg width="513" height="69" viewBox="0 0 513 69" fill="none" xmlns="http://www.w3.org/2000/svg">
<path d="M1.43912 34.7641C1.43912 44.861 8.86503 53.2224 18.5547 54.686C18.1804 53.8519 17.9876 52.9479 17.9891 52.0337V49.5296C17.5278 48.8521 17.1257 48.1362 16.7874 47.3896C16.2062 46.1043 15.7438 44.7685 15.4059 43.3989H17.9891V40.5206H14.823C14.5318 38.6157 14.3875 36.6912 14.3913 34.7641C14.3913 32.7392 14.5453 30.8036 14.823 29.0076H28.3509C28.5279 30.1546 28.6545 31.3577 28.7236 32.6054H31.6062C31.5457 31.4015 31.4304 30.201 31.2608 29.0076H37.8736C38.455 30.6539 38.7946 32.4154 38.8493 34.2475C38.9803 34.3655 39.1084 34.4878 39.2293 34.6159C39.9848 34.1747 40.844 33.9423 41.719 33.9424C41.2872 23.1964 32.438 14.6163 21.587 14.6163C10.4596 14.6163 1.43912 23.6367 1.43912 34.7641ZM21.587 17.4945C23.0721 17.4945 24.8725 18.8588 26.3865 22.1386C26.9232 23.3043 27.391 24.647 27.768 26.1293H15.4059C15.7829 24.647 16.2507 23.3029 16.7874 22.1386C18.3014 18.8588 20.1018 17.4945 21.587 17.4945ZM14.1754 20.9326C13.4703 22.4581 12.8845 24.211 12.4456 26.1293H6.62718C8.61963 22.6851 11.7367 20.0314 15.4548 18.6142C14.9696 19.3529 14.5415 20.1274 14.174 20.9312L14.1754 20.9326ZM11.9131 29.0076C11.6438 30.9145 11.5101 32.8382 11.513 34.7641C11.513 36.7587 11.6526 38.6929 11.9146 40.5206H5.30031C4.64771 38.6716 4.3153 36.7249 4.31738 34.7641C4.31738 32.7464 4.66277 30.8079 5.30031 29.0076H11.9146H11.9131ZM12.4456 43.3989C12.8845 45.3173 13.4688 47.0701 14.1725 48.5956C14.551 49.4159 14.9785 50.1959 15.4534 50.9126C11.7361 49.4953 8.61961 46.8423 6.62718 43.3989H12.4485H12.4456ZM27.7177 18.6142C31.4363 20.0311 34.5539 22.6848 36.5467 26.1293H30.7254C30.2865 24.211 29.7022 22.4581 28.9985 20.9326C28.631 20.1289 28.2028 19.3529 27.7177 18.6142ZM23.6809 54.804C23.0778 54.6332 22.547 54.2702 22.1691 53.7702C21.7911 53.2702 21.5867 52.6605 21.587 52.0337V39.0815C21.587 38.3181 21.8902 37.586 22.43 37.0463C22.9698 36.5065 23.7019 36.2032 24.4652 36.2032H34.5391C35.3025 36.2032 36.0346 36.5065 36.5744 37.0463C37.1141 37.586 37.4174 38.3181 37.4174 39.0815V40.2846L40.903 37.8136C41.0917 37.6773 41.3112 37.5898 41.5419 37.5589C41.7455 37.5318 41.9526 37.5486 42.1491 37.608C42.3457 37.6674 42.5274 37.7682 42.6819 37.9035C42.8364 38.0388 42.9602 38.2055 43.0451 38.3926C43.1299 38.5796 43.1739 38.7826 43.1739 38.988V52.1272C43.1739 52.3912 43.1013 52.65 42.9641 52.8754C42.8269 53.1009 42.6303 53.2843 42.3958 53.4055C42.1614 53.5267 41.8981 53.5812 41.6348 53.5628C41.3715 53.5445 41.1183 53.4541 40.903 53.3016L37.4174 50.8306V52.0337C37.4174 52.797 37.1141 53.5291 36.5744 54.0689C36.0346 54.6087 35.3025 54.9119 34.5391 54.9119H24.4652C24.1932 54.9119 23.9313 54.8745 23.6809 54.804Z" fill="black"/>
<path d="M58.724 14.8893H66.6879L72.8696 38.1682L73.7606 42.4564H74.2061L75.3757 38.1682L81.1118 20.2357H88.1289L93.9208 38.1682L95.0346 42.4007H95.4801L96.3155 38.1682L102.107 14.8893H110.071L99.4899 54.7641H92.25L86.0126 35.5507L84.8431 31.1511H84.3976L83.2281 35.5507L76.9907 54.7641H69.7509L58.724 14.8893ZM136.882 48.1926C135.619 50.4202 133.911 52.2209 131.758 53.5946C129.642 54.9683 127.043 55.6552 123.961 55.6552C121.882 55.6552 119.952 55.3024 118.169 54.597C116.424 53.8545 114.902 52.8335 113.603 51.534C112.303 50.2346 111.282 48.7123 110.54 46.9674C109.834 45.1852 109.482 43.2361 109.482 41.1198C109.482 39.152 109.834 37.2957 110.54 35.5507C111.245 33.7686 112.229 32.2278 113.491 30.9283C114.754 29.5918 116.239 28.5336 117.947 27.754C119.692 26.9743 121.604 26.5844 123.683 26.5844C125.873 26.5844 127.823 26.9557 129.53 27.6983C131.238 28.4037 132.668 29.4061 133.819 30.7056C134.97 31.9679 135.842 33.4716 136.436 35.2165C137.03 36.9615 137.327 38.855 137.327 40.897C137.327 41.1569 137.327 41.3797 137.327 41.5653C137.29 41.7881 137.271 41.9923 137.271 42.1779C137.234 42.3636 137.216 42.5678 137.216 42.7905H116.666C116.814 43.9043 117.111 44.8697 117.557 45.6865C118.039 46.4661 118.615 47.1344 119.283 47.6913C119.989 48.2111 120.75 48.601 121.567 48.8609C122.383 49.0836 123.219 49.195 124.073 49.195C125.743 49.195 127.117 48.8237 128.194 48.0812C129.308 47.3015 130.18 46.3362 130.811 45.1852L136.882 48.1926ZM130.254 37.6113C130.217 37.1286 130.05 36.5903 129.753 35.9962C129.493 35.4022 129.085 34.8453 128.528 34.3255C128.008 33.8057 127.34 33.3787 126.523 33.0446C125.743 32.7105 124.797 32.5434 123.683 32.5434C122.123 32.5434 120.75 32.9889 119.562 33.88C118.374 34.771 117.538 36.0148 117.056 37.6113H130.254ZM141.986 14.8893H149.282V26.8629L148.836 30.7613H149.282C149.95 29.6103 150.99 28.6264 152.401 27.8096C153.812 26.9928 155.557 26.5844 157.636 26.5844C159.381 26.5844 161.033 26.9557 162.592 27.6983C164.189 28.4037 165.581 29.4061 166.769 30.7056C167.994 31.9679 168.959 33.4901 169.665 35.2722C170.37 37.0544 170.723 39.0035 170.723 41.1198C170.723 43.2361 170.37 45.1852 169.665 46.9674C168.959 48.7495 167.994 50.2903 166.769 51.5897C165.581 52.852 164.189 53.8545 162.592 54.597C161.033 55.3024 159.381 55.6552 157.636 55.6552C155.557 55.6552 153.812 55.2468 152.401 54.43C150.99 53.6132 149.95 52.6293 149.282 51.4783H148.836V54.7641H141.986V14.8893ZM156.132 48.9165C157.097 48.9165 158.007 48.7309 158.861 48.3596C159.752 47.9884 160.532 47.4686 161.2 46.8003C161.868 46.132 162.407 45.3152 162.815 44.3499C163.223 43.3846 163.428 42.3079 163.428 41.1198C163.428 39.9317 163.223 38.855 162.815 37.8897C162.407 36.9244 161.868 36.1076 161.2 35.4393C160.532 34.771 159.752 34.2512 158.861 33.88C158.007 33.5087 157.097 33.3231 156.132 33.3231C155.167 33.3231 154.238 33.5087 153.347 33.88C152.494 34.2141 151.732 34.7153 151.064 35.3836C150.396 36.0519 149.857 36.8687 149.449 37.834C149.041 38.7993 148.836 39.8946 148.836 41.1198C148.836 42.345 149.041 43.4403 149.449 44.4056C149.857 45.3709 150.396 46.1877 151.064 46.856C151.732 47.5243 152.494 48.044 153.347 48.4153C154.238 48.7495 155.167 48.9165 156.132 48.9165ZM211.133 48.3596C209.165 50.7358 206.845 52.555 204.172 53.8174C201.498 55.0426 198.51 55.6552 195.205 55.6552C192.235 55.6552 189.469 55.1168 186.907 54.0401C184.383 52.9634 182.192 51.4969 180.336 49.6405C178.479 47.7842 177.013 45.5936 175.936 43.069C174.86 40.5072 174.321 37.7598 174.321 34.8267C174.321 31.8937 174.86 29.1648 175.936 26.6401C177.013 24.0783 178.479 21.8693 180.336 20.0129C182.192 18.1565 184.383 16.69 186.907 15.6133C189.469 14.5366 192.235 13.9983 195.205 13.9983C198.398 13.9983 201.201 14.5552 203.615 15.669C206.065 16.7828 208.237 18.3979 210.131 20.5141L204.84 25.6377C203.652 24.264 202.278 23.1687 200.719 22.3519C199.197 21.5351 197.377 21.1267 195.261 21.1267C193.405 21.1267 191.66 21.4609 190.026 22.1292C188.392 22.7603 186.963 23.6699 185.738 24.858C184.55 26.0461 183.603 27.4941 182.898 29.2019C182.192 30.8726 181.839 32.7476 181.839 34.8267C181.839 36.9058 182.192 38.7993 182.898 40.5072C183.603 42.1779 184.55 43.6073 185.738 44.7954C186.963 45.9835 188.392 46.9117 190.026 47.58C191.66 48.2111 193.405 48.5267 195.261 48.5267C197.489 48.5267 199.456 48.0812 201.164 47.1901C202.909 46.2619 204.45 44.9625 205.787 43.2917L211.133 48.3596ZM228.11 26.5844C230.226 26.5844 232.157 26.9557 233.902 27.6983C235.684 28.4037 237.206 29.4061 238.469 30.7056C239.768 31.9679 240.77 33.4901 241.476 35.2722C242.218 37.0544 242.59 39.0035 242.59 41.1198C242.59 43.2361 242.218 45.1852 241.476 46.9674C240.77 48.7495 239.768 50.2903 238.469 51.5897C237.206 52.852 235.684 53.8545 233.902 54.597C232.157 55.3024 230.226 55.6552 228.11 55.6552C225.994 55.6552 224.045 55.3024 222.262 54.597C220.517 53.8545 218.995 52.852 217.696 51.5897C216.433 50.2903 215.431 48.7495 214.688 46.9674C213.983 45.1852 213.63 43.2361 213.63 41.1198C213.63 39.0035 213.983 37.0544 214.688 35.2722C215.431 33.4901 216.433 31.9679 217.696 30.7056C218.995 29.4061 220.517 28.4037 222.262 27.6983C224.045 26.9557 225.994 26.5844 228.11 26.5844ZM228.11 48.9165C229.038 48.9165 229.929 48.7495 230.783 48.4153C231.674 48.044 232.454 47.5243 233.122 46.856C233.791 46.1877 234.31 45.3709 234.682 44.4056C235.09 43.4403 235.294 42.345 235.294 41.1198C235.294 39.8946 235.09 38.7993 234.682 37.834C234.31 36.8687 233.791 36.0519 233.122 35.3836C232.454 34.7153 231.674 34.2141 230.783 33.88C229.929 33.5087 229.038 33.3231 228.11 33.3231C227.145 33.3231 226.235 33.5087 225.381 33.88C224.527 34.2141 223.766 34.7153 223.098 35.3836C222.43 36.0519 221.891 36.8687 221.483 37.834C221.112 38.7993 220.926 39.8946 220.926 41.1198C220.926 42.345 221.112 43.4403 221.483 44.4056C221.891 45.3709 222.43 46.1877 223.098 46.856C223.766 47.5243 224.527 48.044 225.381 48.4153C226.235 48.7495 227.145 48.9165 228.11 48.9165ZM253.583 31.0397H254.029C254.883 29.666 256.034 28.5893 257.482 27.8096C258.93 26.9928 260.582 26.5844 262.438 26.5844C264.146 26.5844 265.65 26.8629 266.949 27.4198C268.249 27.9767 269.307 28.775 270.124 29.8145C270.978 30.817 271.609 32.0422 272.017 33.4901C272.463 34.901 272.685 36.4789 272.685 38.2239V54.7641H265.39V39.1149C265.39 37.1472 264.944 35.6992 264.053 34.771C263.199 33.8057 261.937 33.3231 260.266 33.3231C259.264 33.3231 258.373 33.5458 257.593 33.9913C256.851 34.3997 256.201 34.9752 255.644 35.7178C255.124 36.4232 254.716 37.2771 254.419 38.2796C254.159 39.2449 254.029 40.2844 254.029 41.3983V54.7641H246.733V27.4755H253.583V31.0397ZM285.562 31.0397H286.008C286.862 29.666 288.013 28.5893 289.461 27.8096C290.909 26.9928 292.561 26.5844 294.417 26.5844C296.125 26.5844 297.629 26.8629 298.928 27.4198C300.228 27.9767 301.286 28.775 302.103 29.8145C302.956 30.817 303.588 32.0422 303.996 33.4901C304.442 34.901 304.664 36.4789 304.664 38.2239V54.7641H297.369V39.1149C297.369 37.1472 296.923 35.6992 296.032 34.771C295.178 33.8057 293.916 33.3231 292.245 33.3231C291.243 33.3231 290.352 33.5458 289.572 33.9913C288.829 34.3997 288.18 34.9752 287.623 35.7178C287.103 36.4232 286.695 37.2771 286.398 38.2796C286.138 39.2449 286.008 40.2844 286.008 41.3983V54.7641H278.712V27.4755H285.562V31.0397ZM336.532 48.1926C335.269 50.4202 333.562 52.2209 331.408 53.5946C329.292 54.9683 326.693 55.6552 323.611 55.6552C321.532 55.6552 319.602 55.3024 317.82 54.597C316.075 53.8545 314.552 52.8335 313.253 51.534C311.953 50.2346 310.932 48.7123 310.19 46.9674C309.484 45.1852 309.132 43.2361 309.132 41.1198C309.132 39.152 309.484 37.2957 310.19 35.5507C310.895 33.7686 311.879 32.2278 313.142 30.9283C314.404 29.5918 315.889 28.5336 317.597 27.754C319.342 26.9743 321.254 26.5844 323.333 26.5844C325.523 26.5844 327.473 26.9557 329.181 27.6983C330.888 28.4037 332.318 29.4061 333.469 30.7056C334.62 31.9679 335.492 33.4716 336.086 35.2165C336.68 36.9615 336.977 38.855 336.977 40.897C336.977 41.1569 336.977 41.3797 336.977 41.5653C336.94 41.7881 336.922 41.9923 336.922 42.1779C336.884 42.3636 336.866 42.5678 336.866 42.7905H316.316C316.464 43.9043 316.761 44.8697 317.207 45.6865C317.69 46.4661 318.265 47.1344 318.933 47.6913C319.639 48.2111 320.4 48.601 321.217 48.8609C322.034 49.0836 322.869 49.195 323.723 49.195C325.394 49.195 326.767 48.8237 327.844 48.0812C328.958 47.3015 329.83 46.3362 330.461 45.1852L336.532 48.1926ZM329.905 37.6113C329.867 37.1286 329.7 36.5903 329.403 35.9962C329.143 35.4022 328.735 34.8453 328.178 34.3255C327.658 33.8057 326.99 33.3787 326.173 33.0446C325.394 32.7105 324.447 32.5434 323.333 32.5434C321.774 32.5434 320.4 32.9889 319.212 33.88C318.024 34.771 317.188 36.0148 316.706 37.6113H329.905ZM367.805 47.8027C366.617 50.1046 364.946 51.9981 362.793 53.4832C360.676 54.9312 358.022 55.6552 354.829 55.6552C352.713 55.6552 350.763 55.3024 348.981 54.597C347.236 53.8545 345.714 52.8335 344.415 51.534C343.152 50.2346 342.15 48.7123 341.407 46.9674C340.702 45.1852 340.349 43.2361 340.349 41.1198C340.349 39.0035 340.702 37.0544 341.407 35.2722C342.15 33.4901 343.152 31.9679 344.415 30.7056C345.714 29.4061 347.236 28.4037 348.981 27.6983C350.763 26.9557 352.713 26.5844 354.829 26.5844C357.985 26.5844 360.639 27.3084 362.793 28.7564C364.946 30.2044 366.524 32.0793 367.526 34.3812L360.844 37.1657C360.212 35.9034 359.396 34.9567 358.393 34.3255C357.428 33.6572 356.203 33.3231 354.717 33.3231C353.752 33.3231 352.843 33.5087 351.989 33.88C351.135 34.2512 350.374 34.771 349.705 35.4393C349.074 36.1076 348.573 36.9244 348.202 37.8897C347.83 38.855 347.645 39.9317 347.645 41.1198C347.645 42.3079 347.83 43.3846 348.202 44.3499C348.573 45.3152 349.074 46.132 349.705 46.8003C350.374 47.4686 351.135 47.9884 351.989 48.3596C352.843 48.7309 353.752 48.9165 354.717 48.9165C356.24 48.9165 357.521 48.5824 358.56 47.9141C359.637 47.2087 360.491 46.2062 361.122 44.9068L367.805 47.8027ZM374.991 33.7129H370.202V27.4755H374.991V19.1218H382.287V27.4755H388.97V33.7129H382.287V44.2942C382.287 44.9254 382.342 45.5194 382.454 46.0763C382.602 46.5961 382.862 47.0416 383.233 47.4129C383.753 48.0069 384.496 48.3039 385.461 48.3039C386.092 48.3039 386.593 48.2482 386.965 48.1369C387.336 47.9884 387.689 47.8027 388.023 47.58L390.083 53.9844C389.23 54.3928 388.301 54.6898 387.299 54.8755C386.334 55.0982 385.257 55.2096 384.069 55.2096C382.695 55.2096 381.451 55.0054 380.338 54.597C379.261 54.1515 378.351 53.5575 377.609 52.8149C375.864 51.1442 374.991 48.768 374.991 45.6865V33.7129ZM412.588 38.6137V54.7641H407.464V14.8893H421.053C424.506 14.8893 427.439 16.0403 429.852 18.3422C432.302 20.6441 433.528 23.4472 433.528 26.7515C433.528 30.1301 432.302 32.9518 429.852 35.2165C427.476 37.4813 424.543 38.6137 421.053 38.6137H412.588ZM412.588 19.7901V33.7129H421.164C423.206 33.7129 424.896 33.026 426.232 31.6523C427.606 30.2786 428.293 28.645 428.293 26.7515C428.293 24.8951 427.606 23.2801 426.232 21.9064C424.896 20.4956 423.206 19.7901 421.164 19.7901H412.588ZM444.023 19.7901V33.8243H452.265C454.344 33.8243 456.108 33.156 457.556 31.8194C459.004 30.4457 459.728 28.7564 459.728 26.7515C459.728 24.8951 459.041 23.2801 457.667 21.9064C456.331 20.4956 454.641 19.7901 452.599 19.7901H444.023ZM444.023 54.7641H438.899V14.8893H452.488C455.941 14.8893 458.874 16.0403 461.287 18.3422C463.737 20.6069 464.963 23.41 464.963 26.7515C464.963 29.4989 464.053 31.9493 462.234 34.1027C460.452 36.219 458.187 37.5741 455.439 38.1682L455.328 38.3352L466.522 54.5413V54.7641H460.452L449.703 38.6137H444.023V54.7641ZM510.135 34.8267C510.135 40.73 508.167 45.6679 504.232 49.6405C500.259 53.6503 495.395 55.6552 489.641 55.6552C483.849 55.6552 478.985 53.6503 475.05 49.6405C471.114 45.6679 469.146 40.73 469.146 34.8267C469.146 28.9235 471.114 23.9855 475.05 20.0129C478.985 16.0031 483.849 13.9983 489.641 13.9983C495.433 13.9983 500.296 16.0217 504.232 20.0686C508.167 24.0412 510.135 28.9606 510.135 34.8267ZM474.381 34.8267C474.381 39.4305 475.829 43.2361 478.725 46.2434C481.658 49.2507 485.297 50.7543 489.641 50.7543C493.985 50.7543 497.605 49.2507 500.5 46.2434C503.434 43.2732 504.9 39.4676 504.9 34.8267C504.9 30.1858 503.434 26.3802 500.5 23.4101C497.605 20.4027 493.985 18.8991 489.641 18.8991C485.297 18.8991 481.658 20.4027 478.725 23.4101C475.829 26.4174 474.381 30.2229 474.381 34.8267Z" fill="black"/>
</svg>
